<svg width="20" height="16" viewBox="0 0 20 16" fill="none" xmlns="http://www.w3.org/2000/svg">
<path d="M19.9115 1.91661C19.19 2.23726 18.4285 2.43767 17.6268 2.55792C18.4285 2.07694 19.0698 1.31539 19.3503 0.393516C18.5888 0.834413 17.7471 1.15506 16.8252 1.35547C16.1037 0.593923 15.0616 0.112946 13.9393 0.112946C11.7749 0.112946 10.0114 1.87653 10.0114 4.04093C10.0114 4.36158 10.0514 4.64215 10.1316 4.92272C6.885 4.7624 3.95905 3.19922 1.99505 0.794331C1.6744 1.39555 1.47399 2.03686 1.47399 2.75832C1.47399 4.1211 2.15538 5.32354 3.23758 6.04501C2.59628 6.00493 1.99505 5.8446 1.43391 5.56403V5.60411C1.43391 7.52802 2.79668 9.13128 4.60035 9.49201C4.2797 9.57218 3.91896 9.61226 3.55823 9.61226C3.31774 9.61226 3.03717 9.57218 2.79668 9.5321C3.31774 11.0953 4.76068 12.2576 6.48418 12.2576C5.12141 13.2998 3.43799 13.9411 1.59424 13.9411C1.27359 13.9411 0.952934 13.9411 0.672363 13.901C2.43595 15.0233 4.48011 15.6646 6.72467 15.6646C13.9794 15.6646 17.9475 9.65234 17.9475 4.44175C17.9475 4.28142 17.9475 4.08101 17.9475 3.92069C18.709 3.39963 19.3904 2.71824 19.9115 1.91661Z" fill="black"/>
</svg>
